<svg width="2173" height="395" xmlns="http://www.w3.org/2000/svg" xmlns:xlink="http://www.w3.org/1999/xlink" xml:space="preserve" overflow="hidden"><defs><clipPath id="clip0"><rect x="1071" y="1892" width="2173" height="395"/></clipPath></defs><g clip-path="url(#clip0)" transform="translate(-1071 -1892)"><path d="M1815.72 1892 1891.4 1892 1891.4 2271.96 1924 2271.96 1924 2278.27 1847.81 2278.27 1847.81 2253.57C1845.55 2261.01 1839.82 2267.68 1830.65 2273.61 1821.47 2279.53 1809.83 2282.66 1795.72 2283 1765.73 2283.09 1740.48 2271.35 1719.98 2247.79 1699.41 2224.15 1689.09 2197.35 1689 2167.39 1689.09 2137.53 1699.94 2110.55 1721.56 2086.47 1732.58 2074.13 1744.57 2064.91 1757.51 2058.82 1770.46 2052.72 1784.42 2049.68 1799.41 2049.69 1809.12 2049.68 1817.98 2051.41 1825.98 2054.88 1833.98 2058.35 1841.26 2063.62 1847.81 2070.71L1847.81 1898.31 1815.72 1898.31 1815.72 1892ZM1799.41 2055.99C1790.73 2055.98 1783.08 2056.92 1776.45 2058.82 1769.82 2060.71 1764.14 2063.62 1759.42 2067.55 1750.75 2074.67 1744.28 2086.58 1740.01 2103.29 1735.75 2119.99 1733.62 2141.36 1733.63 2167.39 1733.62 2193.13 1735.75 2214.17 1740.01 2230.52 1744.28 2246.86 1750.75 2258.58 1759.42 2265.66 1768.36 2273.45 1780.46 2277.31 1795.72 2277.22 1812.63 2276.85 1825.52 2272.47 1834.4 2264.08 1843.28 2255.7 1847.75 2245.54 1847.81 2233.6L1847.81 2081.74C1843.33 2073.54 1836.64 2067.21 1827.75 2062.76 1818.86 2058.3 1809.41 2056.05 1799.41 2055.99Z" fill-rule="evenodd"/><path d="M2723.78 1892 2799.96 1892 2799.96 2272.47 2832.56 2272.47 2832.56 2272.47 2860 2272.47 2860 1898.32 2827.41 1898.32 2827.41 1892 2903.58 1892 2903.58 2155.14 2983.5 2083.05C2990.61 2076.49 2995.72 2071.45 2998.82 2067.92 3001.92 2064.39 3002.95 2062.24 3001.9 2061.48 3001.62 2061.22 3001.01 2061.07 3000.06 2061.02 2999.12 2060.96 2997.98 2060.94 2996.65 2060.95L2970.36 2060.95 2970.36 2054.64 3048.7 2054.64 3048.7 2060.95 3027.14 2060.95C3022.31 2060.66 3017.51 2061.89 3012.75 2064.63 3007.98 2067.37 3000.69 2073.34 2990.86 2082.52L2936.18 2132.51 3048.7 2272.47 3058.71 2272.47 3192.47 2060.95 3145.15 2060.95C3120.97 2060.85 3103.73 2065.65 3093.43 2075.35 3083.12 2085.05 3078.1 2100.25 3078.37 2120.93L3073.12 2120.93 3073.12 2054.64 3242.95 2054.64 3104.66 2272.47 3165.13 2272.47C3191.41 2272.46 3210.23 2266.83 3221.59 2255.57 3232.95 2244.31 3238.49 2227.5 3238.22 2205.12L3244 2205.12 3244 2278.79 3087.61 2278.79 3054.71 2278.79 2966.68 2278.79 2966.68 2272.47 2995.6 2272.47 2903.58 2158.29 2903.58 2272.47 2935.65 2272.47 2935.65 2278.79 2832.56 2278.79 2827.41 2278.79 2723.78 2278.79 2723.78 2274.07 2720.22 2276.97C2713.93 2280.82 2706.13 2282.82 2696.82 2283 2685.98 2282.81 2677.08 2279.38 2670.11 2272.7 2663.14 2266.02 2658.57 2257.19 2656.39 2246.21 2652.71 2257.19 2645.48 2266.02 2634.69 2272.7 2623.91 2279.38 2611.15 2282.81 2596.41 2283 2575.99 2283.12 2559.26 2278.81 2546.22 2270.07 2533.18 2261.32 2526.44 2247.4 2526 2228.31 2526.08 2215.33 2528.42 2204.29 2533.03 2195.2 2537.63 2186.11 2544.06 2179.41 2552.29 2175.13 2560.25 2170.74 2567.43 2167.53 2573.81 2165.52 2580.2 2163.5 2586.85 2162.14 2593.76 2161.44 2594.53 2161.45 2595.36 2161.42 2596.26 2161.37 2597.16 2161.31 2598.26 2161.16 2599.55 2160.91 2617.72 2159.32 2631.39 2157.23 2640.54 2154.66 2649.7 2152.08 2654.28 2149.07 2654.29 2145.64L2654.29 2105.63C2654.38 2072.42 2641.05 2055.77 2614.29 2055.68 2598.94 2055.77 2591.22 2062.43 2591.14 2075.66 2591.29 2078.89 2591.9 2082.29 2592.98 2085.85 2594.05 2089.41 2594.66 2092.67 2594.81 2095.64 2594.81 2100.76 2592.98 2104.99 2589.3 2108.33 2585.63 2111.67 2580.11 2113.4 2572.76 2113.52 2565.43 2113.37 2560.01 2111.18 2556.49 2106.95 2552.97 2102.72 2551.22 2097.37 2551.24 2090.91 2551.47 2080.23 2557.18 2070.83 2568.37 2062.72 2579.57 2054.6 2594.87 2050.33 2614.29 2049.9 2642.42 2049.89 2663.47 2057.8 2677.45 2073.63 2691.43 2089.46 2698.41 2113.29 2698.4 2145.11L2698.4 2254.11C2698.4 2260.15 2699.45 2264.65 2701.55 2267.6 2703.65 2270.55 2706.81 2272.02 2711.01 2272.01 2715.29 2271.87 2718.97 2270.57 2722.06 2268.13 2725.15 2265.68 2727.25 2262.94 2728.37 2259.9L2732.57 2263.06C2731.6 2265.78 2730.08 2268.29 2728.02 2270.61L2725.74 2272.47 2756.38 2272.47 2756.38 1898.31 2723.78 1898.31 2723.78 1892ZM2654.29 2156.7C2651.56 2159.11 2646.92 2160.95 2640.38 2162.24 2633.84 2163.52 2627.1 2164.5 2620.15 2165.2 2613.2 2165.89 2607.74 2166.57 2603.78 2167.23 2592.87 2168.65 2584.3 2173.83 2578.06 2182.76 2571.82 2191.69 2568.64 2206.87 2568.52 2228.31 2568.51 2243.85 2571.56 2255.54 2577.67 2263.38 2583.77 2271.22 2593 2275.14 2605.36 2275.15 2611.95 2275.15 2618.11 2273.97 2623.84 2271.61 2629.57 2269.24 2634.81 2265.69 2639.56 2260.95 2644.55 2255.97 2648.25 2250.79 2650.68 2245.42 2653.1 2240.04 2654.31 2234.34 2654.29 2228.31L2654.29 2156.7Z" fill-rule="evenodd"/><path d="M1169.93 1919C1174.92 1918.99 1180.25 1919.54 1185.9 1920.65 1191.56 1921.75 1197.41 1923.49 1203.45 1925.85 1209.49 1927.95 1214.7 1929.53 1219.1 1930.58 1223.5 1931.64 1227.01 1932.16 1229.64 1932.16 1235.65 1932.17 1240.27 1931.23 1243.53 1929.33 1246.78 1927.44 1248.79 1924.52 1249.55 1920.58L1254.79 1920.58 1254.79 2003.76 1249.55 2003.76C1249.56 1992.43 1247.57 1982.06 1243.59 1972.63 1239.61 1963.21 1233.56 1954.81 1225.45 1947.43 1217.33 1939.81 1208.69 1934.13 1199.52 1930.39 1190.36 1926.65 1180.67 1924.78 1170.45 1924.79 1161.28 1924.78 1152.77 1926.38 1144.91 1929.6 1137.06 1932.81 1129.85 1937.7 1123.31 1944.27 1116.77 1950.58 1111.9 1957.44 1108.7 1964.87 1105.51 1972.29 1103.91 1980.35 1103.92 1989.02 1103.74 2006.43 1110.79 2021.63 1125.07 2034.63 1139.36 2047.62 1161.99 2059.8 1192.98 2071.15 1210.5 2077.46 1225.61 2084.06 1238.29 2090.96 1250.97 2097.86 1261.35 2105.12 1269.45 2112.74 1285.73 2128.01 1293.91 2149.59 1294 2177.49L1294 2177.5C1293.91 2193.38 1289.91 2209.52 1281.98 2225.93 1274.15 2242.25 1261.07 2256.47 1242.74 2268.57 1224.41 2280.77 1203.45 2286.91 1179.88 2287 1173.32 2287.01 1166.27 2286.2 1158.73 2284.56 1151.19 2282.93 1143.22 2280.41 1134.83 2277 1126.7 2273.56 1119.91 2270.95 1114.47 2269.17 1109.02 2267.38 1104.98 2266.48 1102.36 2266.47 1095.69 2266.65 1089.96 2268.65 1085.19 2272.46 1080.41 2276.26 1077.43 2280.76 1076.24 2285.95L1071 2285.95 1071 2175.39 1076.24 2175.39C1076.24 2198.11 1086.17 2221.63 1106.02 2245.93 1116.21 2257.79 1127.39 2266.72 1139.54 2272.72 1151.7 2278.72 1164.97 2281.72 1179.36 2281.73 1205.55 2281.82 1226.5 2274.8 1242.22 2260.68 1250.32 2253.55 1256.37 2245.96 1260.35 2237.91 1264.34 2229.86 1266.32 2221.48 1266.31 2212.77 1266.4 2190.57 1258.89 2173.9 1243.79 2162.75 1236.44 2156.97 1225.86 2150.77 1212.03 2144.13 1198.2 2137.49 1181.2 2130.37 1161.02 2122.74 1134.95 2113.65 1114.95 2101.3 1101.01 2085.69 1087.08 2070.09 1080.04 2048.92 1079.9 2022.19 1079.9 2008.26 1082.12 1995.32 1086.56 1983.36 1091 1971.41 1097.66 1960.31 1106.54 1950.06 1115.44 1939.79 1125.15 1932.04 1135.68 1926.83 1146.21 1921.62 1157.63 1919.01 1169.93 1919Z" fill-rule="evenodd"/><path d="M1376.67 1966 1381.92 1966 1381.92 2054.72 1426.82 2054.72 1429.18 2054.72 1502.91 2054.72 1502.91 2223.17C1503.4 2240.33 1507.93 2253.51 1516.5 2262.73 1525.08 2271.95 1534.73 2276.6 1545.47 2276.7 1560.7 2276.69 1573.34 2272.65 1583.38 2264.57 1593.42 2256.49 1600.93 2244.44 1605.91 2228.42L1605.91 2061.01 1573.33 2061.01 1573.33 2054.72 1649.44 2054.72 1649.44 2271.98 1682 2271.98 1682 2278.28 1605.91 2278.28 1605.91 2242.07C1601.16 2255.94 1593.32 2266.24 1582.39 2272.96 1571.47 2279.69 1559.16 2283.03 1545.47 2283 1518.22 2282.95 1497.1 2275.84 1482.14 2261.68 1467.17 2247.52 1459.58 2226.64 1459.38 2199.03L1459.38 2061.01 1429.18 2061.01 1429.18 2061.01 1381.92 2061.01 1381.92 2255.77C1382 2265.83 1387.08 2270.9 1397.15 2270.99 1404.6 2270.9 1411.23 2267.67 1417.04 2261.28 1422.85 2254.89 1427.25 2245.88 1430.24 2234.25L1434.44 2236.87C1430.5 2252.34 1424.2 2263.9 1415.53 2271.55 1406.86 2279.2 1395.83 2283.01 1382.44 2283 1353.07 2282.93 1338.39 2265.81 1338.39 2231.62L1338.39 2061.01 1299 2061.01 1299 2054.72 1338.39 2054.72 1338.39 1995.92C1348.11 1994.61 1356.2 1991.46 1362.64 1986.47 1369.09 1981.49 1373.77 1974.66 1376.67 1966Z" fill-rule="evenodd"/><path d="M2462.42 1966 2467.65 1966 2467.65 2054.72 2514.77 2054.72 2514.77 2061.01 2467.65 2061.01 2467.65 2255.77C2467.74 2265.83 2472.8 2270.9 2482.83 2270.99 2490.26 2270.9 2496.87 2267.67 2502.66 2261.28 2508.45 2254.89 2512.83 2245.88 2515.81 2234.25L2520 2236.87C2516.07 2252.34 2509.79 2263.9 2501.15 2271.55 2492.52 2279.2 2481.52 2283.01 2468.17 2283 2438.9 2282.93 2424.26 2265.81 2424.26 2231.62L2424.26 2061.01 2385 2061.01 2385 2054.72 2424.26 2054.72 2424.26 1995.92C2433.96 1994.61 2442.01 1991.46 2448.44 1986.47 2454.86 1981.49 2459.53 1974.66 2462.42 1966Z" fill-rule="evenodd"/><path d="M2035.81 2050C2051.5 2050.21 2065.54 2053.73 2077.93 2060.56 2090.32 2067.39 2100.15 2076.28 2107.41 2087.25 2114.53 2098.09 2119.91 2109.06 2123.54 2120.16 2127.17 2131.27 2128.99 2141.98 2129 2152.3L2129 2153.87 1975.27 2153.87C1975.01 2155.2 1974.86 2157 1974.81 2159.25 1974.75 2161.5 1974.73 2164.08 1974.74 2166.99 1974.74 2196.91 1976.32 2218.96 1979.48 2233.13 1983.08 2247.22 1989.04 2257.89 1997.38 2265.15 2006.77 2273.11 2019.58 2277.14 2035.81 2277.23 2071.09 2277.23 2098.99 2261.48 2119.52 2229.98L2123.74 2233.13C2102.06 2266.29 2072.75 2282.91 2035.81 2283 2020.78 2283.01 2006.88 2280.23 1994.09 2274.67 1981.3 2269.1 1969.77 2260.68 1959.49 2249.4 1949.25 2238.1 1941.61 2225.54 1936.56 2211.74 1931.51 2197.94 1928.99 2183.02 1929 2166.99 1928.91 2134.37 1939.08 2106.74 1959.49 2084.1 1969.77 2072.81 1981.3 2064.31 1994.09 2058.59 2006.88 2052.87 2020.78 2050.01 2035.81 2050ZM2035.81 2055.77C2027.63 2055.76 2020.3 2056.7 2013.83 2058.59 2007.36 2060.48 2001.88 2063.39 1997.38 2067.31 1983.69 2079.29 1976.32 2106.22 1975.27 2148.1L2084.78 2148.1C2084.52 2127.13 2082.92 2109.92 2079.97 2096.49 2077.02 2083.06 2072.66 2073.33 2066.87 2067.31 2062.95 2063.39 2058.43 2060.48 2053.32 2058.59 2048.21 2056.7 2042.37 2055.76 2035.81 2055.77Z" fill-rule="evenodd"/><path d="M2273.66 2050C2301.46 2050.21 2322.9 2057.92 2338 2073.13 2353.09 2088.34 2360.74 2109.81 2360.92 2137.53L2360.92 2271.71 2393 2271.71 2393 2278 2284.71 2278 2284.71 2271.71 2316.28 2271.71 2316.28 2109.75C2316.18 2095.6 2312.43 2083.28 2305.03 2072.8 2297.63 2062.32 2287.17 2056.81 2273.66 2056.29 2258.68 2056.3 2246.27 2060.34 2236.43 2068.41 2226.58 2076.48 2219.17 2088.51 2214.19 2104.51L2214.19 2271.71 2246.29 2271.71 2246.29 2278 2138 2278 2138 2271.71 2170.61 2271.71 2170.61 2061.01 2138 2061.01 2138 2054.72 2214.19 2054.72 2214.19 2090.88C2218.61 2077.94 2226.09 2067.92 2236.62 2060.81 2247.16 2053.7 2259.5 2050.1 2273.66 2050Z" fill-rule="evenodd"/></g></svg>