<svg width="2941" height="1052" xmlns="http://www.w3.org/2000/svg" xmlns:xlink="http://www.w3.org/1999/xlink" xml:space="preserve" overflow="hidden"><g transform="translate(-731 -248)"><path d="M1059.26 402.722 1385.19 402.722 1385.19 545.722 1059.26 545.722Z" fill="#000000" fill-rule="evenodd" fill-opacity="0.2"/><path d="M1385.19 402.722 1711.11 402.722 1711.11 545.722 1385.19 545.722Z" fill="#000000" fill-rule="evenodd" fill-opacity="0.2"/><path d="M1711.11 402.722 2037.04 402.722 2037.04 545.722 1711.11 545.722Z" fill="#000000" fill-rule="evenodd" fill-opacity="0.2"/><path d="M2037.04 402.722 2362.96 402.722 2362.96 545.722 2037.04 545.722Z" fill="#000000" fill-rule="evenodd" fill-opacity="0.2"/><path d="M2362.96 402.722 2688.89 402.722 2688.89 545.722 2362.96 545.722Z" fill="#000000" fill-rule="evenodd" fill-opacity="0.2"/><path d="M2688.89 402.722 3014.81 402.722 3014.81 545.722 2688.89 545.722Z" fill="#000000" fill-rule="evenodd" fill-opacity="0.2"/><path d="M3014.81 402.722 3340.74 402.722 3340.74 545.722 3014.81 545.722Z" fill="#000000" fill-rule="evenodd" fill-opacity="0.2"/><path d="M3340.74 402.722 3666.67 402.722 3666.67 545.722 3340.74 545.722Z" fill="#000000" fill-rule="evenodd" fill-opacity="0.2"/><path d="M733.333 688.722 1059.26 688.722 1059.26 831.722 733.333 831.722Z" fill="#000000" fill-rule="evenodd" fill-opacity="0.2"/><path d="M1059.26 688.722 1385.19 688.722 1385.19 831.722 1059.26 831.722Z" fill="#000000" fill-rule="evenodd" fill-opacity="0.2"/><path d="M1385.19 688.722 1711.11 688.722 1711.11 831.722 1385.19 831.722Z" fill="#000000" fill-rule="evenodd" fill-opacity="0.2"/><path d="M1711.11 688.722 2037.04 688.722 2037.04 831.722 1711.11 831.722Z" fill="#000000" fill-rule="evenodd" fill-opacity="0.2"/><path d="M2037.04 688.722 2362.96 688.722 2362.96 831.722 2037.04 831.722Z" fill="#000000" fill-rule="evenodd" fill-opacity="0.2"/><path d="M2362.96 688.722 2688.89 688.722 2688.89 831.722 2362.96 831.722Z" fill="#000000" fill-rule="evenodd" fill-opacity="0.2"/><path d="M2688.89 688.722 3014.81 688.722 3014.81 831.722 2688.89 831.722Z" fill="#000000" fill-rule="evenodd" fill-opacity="0.2"/><path d="M3014.81 688.722 3340.74 688.722 3340.74 831.722 3014.81 831.722Z" fill="#000000" fill-rule="evenodd" fill-opacity="0.2"/><path d="M3340.74 688.722 3666.67 688.722 3666.67 831.722 3340.74 831.722Z" fill="#000000" fill-rule="evenodd" fill-opacity="0.2"/><path d="M733.333 974.722 1059.26 974.722 1059.26 1117.72 733.333 1117.72Z" fill="#000000" fill-rule="evenodd" fill-opacity="0.2"/><path d="M1059.26 974.722 1385.19 974.722 1385.19 1117.72 1059.26 1117.72Z" fill="#000000" fill-rule="evenodd" fill-opacity="0.2"/><path d="M1385.19 974.722 1711.11 974.722 1711.11 1117.72 1385.19 1117.72Z" fill="#000000" fill-rule="evenodd" fill-opacity="0.2"/><path d="M1711.11 974.722 2037.04 974.722 2037.04 1117.72 1711.11 1117.72Z" fill="#000000" fill-rule="evenodd" fill-opacity="0.2"/><path d="M2037.04 974.722 2362.96 974.722 2362.96 1117.72 2037.04 1117.72Z" fill="#000000" fill-rule="evenodd" fill-opacity="0.2"/><path d="M2362.96 974.722 2688.89 974.722 2688.89 1117.72 2362.96 1117.72Z" fill="#000000" fill-rule="evenodd" fill-opacity="0.2"/><path d="M2688.89 974.722 3014.81 974.722 3014.81 1117.72 2688.89 1117.72Z" fill="#000000" fill-rule="evenodd" fill-opacity="0.2"/><path d="M3014.81 974.722 3340.74 974.722 3340.74 1117.72 3014.81 1117.72Z" fill="#000000" fill-rule="evenodd" fill-opacity="0.2"/><path d="M3340.74 974.722 3666.67 974.722 3666.67 1117.72 3340.74 1117.72Z" fill="#000000" fill-rule="evenodd" fill-opacity="0.2"/><path d="M1059.26 257.43 1059.26 1120.01" stroke="#000000" stroke-width="4.58333" stroke-linejoin="round" stroke-miterlimit="10" fill="none" fill-rule="evenodd"/><path d="M1385.19 400.43 1385.19 1120.01" stroke="#000000" stroke-width="4.58333" stroke-linejoin="round" stroke-miterlimit="10" fill="none" fill-rule="evenodd"/><path d="M1711.11 400.43 1711.11 1120.01" stroke="#000000" stroke-width="4.58333" stroke-linejoin="round" stroke-miterlimit="10" fill="none" fill-rule="evenodd"/><path d="M2037.04 400.43 2037.04 1120.01" stroke="#000000" stroke-width="4.58333" stroke-linejoin="round" stroke-miterlimit="10" fill="none" fill-rule="evenodd"/><path d="M2362.96 400.43 2362.96 1120.01" stroke="#000000" stroke-width="4.58333" stroke-linejoin="round" stroke-miterlimit="10" fill="none" fill-rule="evenodd"/><path d="M2688.89 257.43 2688.89 1120.01" stroke="#000000" stroke-width="4.58333" stroke-linejoin="round" stroke-miterlimit="10" fill="none" fill-rule="evenodd"/><path d="M3014.81 400.43 3014.81 1120.01" stroke="#000000" stroke-width="4.58333" stroke-linejoin="round" stroke-miterlimit="10" fill="none" fill-rule="evenodd"/><path d="M3340.74 400.43 3340.74 1120.01" stroke="#000000" stroke-width="4.58333" stroke-linejoin="round" stroke-miterlimit="10" fill="none" fill-rule="evenodd"/><path d="M1056.97 402.722 3668.96 402.722" stroke="#000000" stroke-width="4.58333" stroke-linejoin="round" stroke-miterlimit="10" fill="none" fill-rule="evenodd"/><path d="M731.042 545.722 3668.96 545.722" stroke="#000000" stroke-width="4.58333" stroke-linejoin="round" stroke-miterlimit="10" fill="none" fill-rule="evenodd"/><path d="M731.042 688.722 3668.96 688.722" stroke="#000000" stroke-width="4.58333" stroke-linejoin="round" stroke-miterlimit="10" fill="none" fill-rule="evenodd"/><path d="M731.042 831.722 3668.96 831.722" stroke="#000000" stroke-width="4.58333" stroke-linejoin="round" stroke-miterlimit="10" fill="none" fill-rule="evenodd"/><path d="M731.042 974.722 3668.96 974.722" stroke="#000000" stroke-width="4.58333" stroke-linejoin="round" stroke-miterlimit="10" fill="none" fill-rule="evenodd"/><path d="M731.042 1117.72 3668.96 1117.72" stroke="#000000" stroke-width="4.58333" stroke-linejoin="round" stroke-miterlimit="10" fill="none" fill-rule="evenodd"/><path d="M733.333 257.43 733.333 1263.01" stroke="#000000" stroke-width="4.58333" stroke-linejoin="round" stroke-miterlimit="10" fill="none" fill-rule="evenodd"/><path d="M3666.67 257.43 3666.67 1263.01" stroke="#000000" stroke-width="4.58333" stroke-linejoin="round" stroke-miterlimit="10" fill="none" fill-rule="evenodd"/><path d="M731.042 259.722 3668.96 259.722" stroke="#000000" stroke-width="4.58333" stroke-linejoin="round" stroke-miterlimit="10" fill="none" fill-rule="evenodd"/><path d="M731.042 1260.72 3668.96 1260.72" stroke="#000000" stroke-width="4.58333" stroke-linejoin="round" stroke-miterlimit="10" fill="none" fill-rule="evenodd"/><text font-family="Times New Roman,Times New Roman_MSFontService,sans-serif" font-weight="700" font-size="92" transform="matrix(1 0 0 1 3041.39 365)">GOTO</text><text font-family="Times New Roman,Times New Roman_MSFontService,sans-serif" font-weight="700" font-size="92" transform="matrix(1 0 0 1 1690.45 365)">ACTION</text><text font-family="Source Han Serif SC,Source Han Serif SC_MSFontService,sans-serif" font-weight="700" font-size="92" transform="matrix(1 0 0 1 804.63 436)">状态</text><text font-family="Times New Roman,Times New Roman_MSFontService,sans-serif" font-weight="400" font-size="92" transform="matrix(1 0 0 1 3473.05 508)">R</text><text font-family="Times New Roman,Times New Roman_MSFontService,sans-serif" font-weight="400" font-size="92" transform="matrix(1 0 0 1 3149.7 508)">L</text><text font-family="Times New Roman,Times New Roman_MSFontService,sans-serif" font-weight="400" font-size="92" transform="matrix(1 0 0 1 2826.36 508)">S</text><text font-family="Times New Roman,Times New Roman_MSFontService,sans-serif" font-weight="400" font-size="92" transform="matrix(1 0 0 1 2503.01 508)">#</text><text font-family="Times New Roman,Times New Roman_MSFontService,sans-serif" font-weight="400" font-size="92" transform="matrix(1 0 0 1 2177.08 508)">d</text><text font-family="Times New Roman,Times New Roman_MSFontService,sans-serif" font-weight="400" font-size="92" transform="matrix(1 0 0 1 1853.74 508)">c</text><text font-family="Times New Roman,Times New Roman_MSFontService,sans-serif" font-weight="400" font-size="92" transform="matrix(1 0 0 1 1525.23 508)">b</text><text font-family="Times New Roman,Times New Roman_MSFontService,sans-serif" font-weight="400" font-size="92" transform="matrix(1 0 0 1 1201.88 508)">a</text><text font-family="Times New Roman,Times New Roman_MSFontService,sans-serif" font-weight="400" font-size="92" transform="matrix(1 0 0 1 3480.79 651)">1</text><text font-family="Times New Roman,Times New Roman_MSFontService,sans-serif" font-weight="400" font-size="92" transform="matrix(1 0 0 1 3154.86 651)">3</text><text font-family="Times New Roman,Times New Roman_MSFontService,sans-serif" font-weight="400" font-size="92" transform="matrix(1 0 0 1 2159.32 651)">s4</text><text font-family="Times New Roman,Times New Roman_MSFontService,sans-serif" font-weight="400" font-size="92" transform="matrix(1 0 0 1 1181.54 651)">s5</text><text font-family="Times New Roman,Times New Roman_MSFontService,sans-serif" font-weight="400" font-size="92" transform="matrix(1 0 0 1 873.38 651)">0</text><text font-family="Times New Roman,Times New Roman_MSFontService,sans-serif" font-weight="400" font-size="92" transform="matrix(1 0 0 1 2464.91 794)">acc</text><text font-family="Times New Roman,Times New Roman_MSFontService,sans-serif" font-weight="400" font-size="92" transform="matrix(1 0 0 1 873.38 794)">2</text><text font-family="Times New Roman,Times New Roman_MSFontService,sans-serif" font-weight="400" font-size="92" transform="matrix(1 0 0 1 873.38 937)">3</text><text font-family="Times New Roman,Times New Roman_MSFontService,sans-serif" font-weight="400" font-size="92" transform="matrix(1 0 0 1 3480.79 1080)">7</text><text font-family="Times New Roman,Times New Roman_MSFontService,sans-serif" font-weight="400" font-size="92" transform="matrix(1 0 0 1 2159.32 1080)">s4</text><text font-family="Times New Roman,Times New Roman_MSFontService,sans-serif" font-weight="400" font-size="92" transform="matrix(1 0 0 1 1181.54 1080)">s5</text><text font-family="Times New Roman,Times New Roman_MSFontService,sans-serif" font-weight="400" font-size="92" transform="matrix(1 0 0 1 873.38 1080)">5</text><text font-family="Source Han Serif SC,Source Han Serif SC_MSFontService,sans-serif" font-weight="400" font-size="92" transform="matrix(1 0 0 1 1695.83 1222)">其他状态略，你无需补全</text></g></svg>